# xmcd
#
# Track frame offsets:
#	150
#	17926
#	39779
#	62974
#	88437
#	111458
#	131863
#	144263
#
# Disc length: 2317 seconds
#
# Revision: 1
# Processed by: cddbd v1.5.1PL0 Copyright (c) Steve Scherf et al.
# Submitted via: audiograbber 1.83.01
#
DISCID=75090b08
DTITLE=Michael Pickett - Live At Winterfolk
DYEAR=2004
DGENRE=Blues
TTITLE0=I Got Fooled
TTITLE1=Me and The Devil
TTITLE2=Blues Is A Friend Of Mine
TTITLE3=World In An Uproar
TTITLE4=Cecil and Spadina
TTITLE5=Louise
TTITLE6=Bill's Song
TTITLE7=Lose Your Money
EXTD=Wooden Teeth Records\nRecorded at Convention Hall, Toronto, Ontario, Canad
EXTD=a on February 2, 2003
EXTT0=
EXTT1=
EXTT2=
EXTT3=
EXTT4=
EXTT5=
EXTT6=
EXTT7=
PLAYORDER=
